<svg width="650" height="650" viewBox="0 0 650 650" fill="none" xmlns="http://www.w3.org/2000/svg">
<rect width="650" height="650" fill="#007FFD"/>
<path d="M430.117 260.732C435.61 262.563 436.342 263.647 439.357 268.366C440.078 269.451 440.799 270.537 441.542 271.655C443.432 276.33 443.078 278.507 441.366 283.23C423.217 304.481 393.178 320.871 367.997 332.777C364.913 334.314 361.919 336.03 358.958 337.792C352.916 341.274 346.721 343.587 340.126 345.802C338.938 346.209 337.751 346.615 336.527 347.034C334.086 347.868 331.643 348.697 329.199 349.521C325.913 350.639 322.642 351.791 319.374 352.958C300.145 359.678 280.731 363.28 260.599 366.103C256.583 366.589 256.583 366.589 253.349 368.4C249.897 368.558 246.441 368.61 242.985 368.614C241.941 368.615 240.897 368.617 239.822 368.618C237.597 368.619 235.372 368.616 233.147 368.61C229.832 368.601 226.517 368.61 223.203 368.62C208.547 368.627 194.039 367.95 179.428 366.793C180.244 359.855 181.351 353.884 184.249 347.509C185.759 347.543 187.269 347.577 188.825 347.611C217.59 348.196 245.253 348.29 273.487 341.931C277.805 341.006 282.137 340.285 286.493 339.562C294.114 338.195 300.86 336.012 307.987 333.047C310.446 332.099 312.907 331.156 315.369 330.216C332.701 323.451 349.374 315.994 365.838 307.335C367.398 306.548 368.958 305.761 370.565 304.95C392.104 293.788 413.216 278.101 430.117 260.732Z" fill="#F6F7F0"/>
<path d="M176.214 374.827C199.52 374.088 221.471 377.802 243.707 384.469C243.707 385.53 243.707 386.591 243.707 387.683C244.554 387.853 245.402 388.023 246.274 388.198C272.876 395.724 291.802 416.277 310.799 435.089C312.205 436.481 313.612 437.872 315.061 439.305C323.392 447.679 331.037 456.359 338.425 465.573C342.846 471.008 347.553 476.115 352.379 481.19C357.698 486.818 362.94 492.474 367.991 498.345C374.404 505.722 381.287 512.585 388.235 519.456C389.487 520.701 390.739 521.946 392.03 523.229C395.08 526.26 398.134 529.288 401.191 532.312C399.584 537.133 399.584 537.133 394.362 539.844C388.8 541.791 386.007 542.722 380.301 541.954C376.52 539.136 376.52 539.136 372.642 535.193C371.211 533.75 369.779 532.307 368.305 530.821C367.567 530.057 366.83 529.293 366.071 528.507C363.878 526.236 361.654 523.996 359.429 521.756C350.837 513.011 342.876 503.947 335.206 494.386C331.645 489.978 327.926 485.83 324.056 481.692C318.769 475.956 313.752 470.115 308.89 464.015C301.19 454.468 292.663 446.042 283.882 437.5C282.608 436.186 281.334 434.873 280.021 433.52C251.312 405.631 221.802 395.181 182.441 391.5C176.214 390.897 176.214 390.897 174.607 389.29C174.225 378.804 174.225 378.804 176.214 374.827Z" fill="#F6F7F0"/>
<path d="M327.27 92C334.671 95.1719 338.959 99.0959 342.336 106.463C342.904 107.923 342.904 107.923 343.485 109.413C345.299 113.727 347.488 117.789 349.668 121.93C360.088 142.615 362.911 162.374 362.925 185.205C362.945 186.879 362.965 188.553 362.985 190.277C363.033 215.571 353.386 240.408 338.519 260.733C337.838 261.727 337.156 262.722 336.454 263.746C319.48 286.17 284.004 302.681 256.846 306.62C246.296 307.729 235.721 307.507 225.127 307.436C222.005 307.425 222.005 307.425 218.821 307.414C213.725 307.395 208.629 307.369 203.533 307.336C203.332 296.489 203.332 296.489 205.14 292.873C206.051 292.858 206.962 292.843 207.901 292.827C224.553 292.485 240.842 291.759 257.166 288.253C258.375 287.993 259.584 287.734 260.83 287.467C284.843 281.928 308.956 270.978 323.617 250.413C325.413 247.451 327.152 244.454 328.877 241.449C329.938 241.449 330.999 241.449 332.091 241.449C332.323 240.19 332.555 238.93 332.794 237.633C333.698 233.414 333.698 233.414 335.305 230.2C336.366 230.2 337.426 230.2 338.519 230.2C338.818 227.416 338.818 227.416 339.122 224.576C339.612 220.005 340.506 216.01 341.771 211.557C343.857 203.39 343.811 195.4 343.742 187.013C343.754 185.519 343.767 184.026 343.78 182.487C343.737 167.241 340.477 153.398 336.008 138.904C333.861 131.875 331.753 124.966 330.484 117.712C329.424 117.712 328.363 117.712 327.27 117.712C321.359 105.151 321.359 105.151 322.449 98.4279C324.86 94.7118 324.86 94.7118 327.27 92Z" fill="#F5F6EF"/>
<path d="M401.191 212.523C402.782 213.054 404.373 213.584 406.012 214.13C407.117 217.445 407.117 217.445 407.619 220.558C408.68 220.558 409.741 220.558 410.833 220.558C414.154 225.539 415.016 228.587 414.863 234.538C413.15 242.302 407.559 248.133 402.798 254.305C401.085 256.912 399.378 259.524 397.676 262.139C369.54 302.146 319.825 327.118 272.633 336.261C271.282 336.546 269.931 336.831 268.539 337.125C255.597 339.616 242.889 339.919 229.767 339.806C226.203 339.776 222.639 339.773 219.075 339.773C209.452 339.74 200.163 339.697 190.677 337.868C192.083 325.414 192.083 325.414 193.891 321.798C195.693 321.861 195.693 321.861 197.531 321.926C226.349 322.794 252.634 320.989 280.668 313.763C282.382 313.327 282.382 313.327 284.131 312.881C296.434 309.655 307.869 304.961 319.235 299.3C321.106 298.393 322.976 297.486 324.904 296.551C356.54 280.772 386.312 255.11 398.279 220.86C399.108 218.507 399.108 218.507 399.955 216.108C400.363 214.925 400.771 213.742 401.191 212.523Z" fill="#F6F6F0"/>
<path d="M177.921 401.746C183.072 402.184 187.225 403.784 192.019 405.636C195.246 406.873 198.489 408.027 201.756 409.153C228.571 418.566 252.687 434.884 269.419 458.392C269.419 459.453 269.419 460.513 269.419 461.606C270.48 461.606 271.54 461.606 272.633 461.606C275.17 464.905 277.531 468.211 279.864 471.65C287.6 482.77 295.925 493.12 304.773 503.388C305.8 504.595 306.827 505.803 307.886 507.047C316.803 517.417 326.346 526.847 336.699 535.778C340.551 539.109 344.358 542.486 348.161 545.872C349.387 546.964 350.614 548.056 351.877 549.18C352.772 549.978 353.667 550.776 354.589 551.597C348.888 555.398 345.308 555.75 338.519 556.418C336.584 556.723 334.65 557.027 332.656 557.341C326.026 557.292 323.03 554.794 318.237 550.361C315.621 547.694 313.043 544.991 310.497 542.257C309.147 540.853 307.796 539.449 306.405 538.003C297.299 528.453 288.638 518.73 280.668 508.209C279.433 506.643 278.199 505.077 276.927 503.463C270.081 494.751 263.556 485.879 257.254 476.765C249.75 465.926 242.438 455.878 232.458 447.143C231.561 446.282 230.664 445.42 229.74 444.532C222.382 437.703 214.184 433.674 205.14 429.467C202.85 428.267 202.85 428.267 200.513 427.044C195.236 424.521 190.055 422.789 184.45 421.13C182.598 420.577 180.746 420.024 178.838 419.454C177.442 419.046 176.045 418.638 174.607 418.218C174.295 415.842 173.996 413.465 173.703 411.087C173.535 409.763 173.367 408.439 173.195 407.076C173.13 405.98 173.066 404.884 173 403.755C174.607 402.148 174.607 402.148 177.921 401.746Z" fill="#F6F7F0"/>
<path d="M460.65 305.729C464.623 313.675 466.266 317.707 463.864 326.619C461.334 330.241 461.334 330.241 457.938 333.951C427.862 369.185 411.68 402.132 414.047 448.75C416.063 467.533 426.236 485.902 436.746 501.379C437.74 503.102 438.735 504.826 439.759 506.601C437.581 512.739 433.906 515.904 428.51 519.457C423.09 517.651 422.718 517.024 419.986 512.339C419.317 511.202 418.648 510.066 417.959 508.895C417.265 507.674 416.571 506.453 415.855 505.195C415.138 503.947 414.421 502.7 413.683 501.414C396.557 471.276 387.555 439.873 394.663 405.161C401.095 383.984 412.221 363.633 425.296 345.903C426.426 344.371 426.426 344.371 427.579 342.808C432.404 336.284 437.276 329.798 442.196 323.346C443.883 321.114 445.55 318.867 447.202 316.61C448.056 315.447 448.91 314.284 449.79 313.085C450.563 312.023 451.335 310.961 452.131 309.867C454.823 306.608 456.408 305.729 460.65 305.729Z" fill="#F5F6EF"/>
<path d="M468.685 336.262C473.506 337.869 473.506 337.869 475.414 340.48C477.243 345.827 477.195 349.904 476.72 355.546C474.563 359.376 472.554 362.474 469.89 365.89C464.35 373.43 459.579 380.718 455.829 389.292C454.994 391.165 454.159 393.037 453.299 394.967C450.226 403.278 450.215 411.347 450.305 420.126C450.315 421.76 450.325 423.393 450.335 425.076C450.658 440.638 453.684 453.265 461.152 467.03C464.346 473.89 464.556 476.936 462.257 484.104C458.139 488.825 458.139 488.825 454.222 492.139C444.758 481.667 440.81 470.06 436.545 456.785C435.911 455.099 435.911 455.099 435.263 453.378C432.023 444.551 430.954 436.836 431.122 427.458C431.137 426.131 431.152 424.805 431.168 423.438C431.563 407.256 434.669 392.953 442.521 378.709C444.75 374.677 444.75 374.677 446.677 369.581C449.671 362.469 454.001 356.399 458.44 350.122C459.248 348.96 460.056 347.798 460.889 346.6C466.763 338.184 466.763 338.184 468.685 336.262Z" fill="#F6F6EF"/>
<path d="M299.952 130.568C302.073 131.099 304.194 131.629 306.379 132.175C309.7 144.795 311.472 156.787 311.401 169.839C311.411 171.556 311.411 171.556 311.42 173.307C311.4 184.217 310.93 194.523 306.172 204.54C304.481 208.361 303.26 212.269 301.96 216.241C298.489 225.876 293.376 233.425 287.096 241.45C285.89 243.109 285.89 243.109 284.66 244.802C272.519 260.315 250.166 273.776 230.851 276.804C226.015 277.037 221.225 277.005 216.388 276.804C217.268 271.381 218.084 268.637 221.209 263.948C225.88 262.41 225.88 262.41 231.655 261.035C251.066 255.781 268.422 244.77 279.462 227.59C288.383 211.538 293.948 194.413 293.455 176.016C293.403 172.974 293.403 172.974 293.351 169.87C293.265 165.631 293.161 161.391 293.037 157.153C293.009 155.125 292.981 153.097 292.952 151.007C292.887 148.246 292.887 148.246 292.819 145.43C293.675 139.086 296.097 135.597 299.952 130.568Z" fill="#F4F5ED"/>
<path d="M181.035 439.107C211.431 449.318 237.752 479.866 258.17 503.387C259.092 504.427 260.014 505.467 260.964 506.538C265.334 511.482 269.63 516.487 273.888 521.528C283.239 532.57 292.689 543.202 303.166 553.203C296.486 556.014 290.517 553.468 283.982 551.395C282.287 550.911 282.287 550.911 280.558 550.416C272.793 548 268.429 545.002 262.991 538.74C261.721 537.392 260.451 536.043 259.143 534.654C252.762 527.675 246.518 520.682 240.694 513.229C225.931 494.524 208.812 475.101 188.869 461.806C183.835 458.085 182.332 456.408 181.035 450.356C180.912 446.609 180.888 442.854 181.035 439.107Z" fill="#F6F7F0"/>
</svg>
