<svg width="1382" height="407" viewBox="0 0 1382 407" fill="none" xmlns="http://www.w3.org/2000/svg">
<path d="M309.643 214.203C311.472 214.813 311.716 215.174 312.721 216.746C312.961 217.107 313.201 217.469 313.448 217.841C314.078 219.398 313.96 220.124 313.39 221.697C307.345 228.775 297.339 234.235 288.952 238.2C287.924 238.712 286.927 239.284 285.941 239.871C283.928 241.031 281.865 241.801 279.668 242.539C279.272 242.674 278.877 242.81 278.469 242.949C277.656 243.227 276.842 243.503 276.028 243.778C274.934 244.15 273.844 244.534 272.755 244.923C266.351 247.161 259.884 248.361 253.178 249.301C251.841 249.463 251.841 249.463 250.763 250.066C249.614 250.119 248.462 250.136 247.311 250.137C246.964 250.138 246.616 250.138 246.258 250.139C245.517 250.139 244.775 250.138 244.034 250.136C242.93 250.133 241.826 250.136 240.722 250.139C235.84 250.142 231.008 249.916 226.141 249.531C226.413 247.22 226.782 245.231 227.747 243.108C228.25 243.119 228.753 243.13 229.271 243.142C238.852 243.336 248.067 243.368 257.471 241.249C258.909 240.942 260.352 240.701 261.803 240.461C264.342 240.005 266.589 239.278 268.963 238.29C269.782 237.975 270.601 237.66 271.421 237.347C277.195 235.094 282.748 232.61 288.232 229.726C288.752 229.464 289.271 229.202 289.807 228.931C296.981 225.214 304.013 219.988 309.643 214.203Z" fill="#007FFD"/>
<path d="M225.071 252.207C232.834 251.96 240.145 253.197 247.552 255.418C247.552 255.772 247.552 256.125 247.552 256.489C247.834 256.546 248.116 256.602 248.407 256.66C257.268 259.167 263.572 266.013 269.899 272.279C270.368 272.743 270.836 273.206 271.319 273.684C274.094 276.473 276.64 279.364 279.101 282.433C280.574 284.243 282.142 285.945 283.749 287.635C285.521 289.51 287.267 291.393 288.949 293.349C291.086 295.806 293.378 298.093 295.693 300.381C296.11 300.796 296.527 301.21 296.957 301.638C297.973 302.647 298.99 303.656 300.008 304.663C299.473 306.269 299.473 306.269 297.733 307.172C295.881 307.821 294.951 308.131 293.05 307.875C291.79 306.936 291.79 306.936 290.499 305.623C290.022 305.142 289.545 304.662 289.054 304.167C288.808 303.912 288.563 303.658 288.31 303.396C287.579 302.639 286.839 301.893 286.097 301.147C283.236 298.234 280.584 295.215 278.029 292.031C276.843 290.562 275.604 289.181 274.315 287.802C272.554 285.892 270.883 283.946 269.264 281.914C266.699 278.734 263.859 275.928 260.934 273.082C260.509 272.645 260.085 272.207 259.648 271.757C250.085 262.467 240.255 258.986 227.145 257.76C225.071 257.559 225.071 257.559 224.535 257.024C224.408 253.531 224.408 253.531 225.071 252.207Z" fill="#007FFD"/>
<path d="M275.386 158C277.851 159.057 279.28 160.364 280.404 162.817C280.594 163.304 280.594 163.304 280.787 163.8C281.391 165.237 282.12 166.59 282.846 167.969C286.317 174.859 287.258 181.441 287.262 189.046C287.269 189.603 287.275 190.161 287.282 190.735C287.298 199.16 284.085 207.433 279.133 214.203C278.906 214.534 278.679 214.866 278.445 215.207C272.791 222.676 260.974 228.176 251.928 229.488C248.414 229.857 244.892 229.783 241.363 229.759C240.323 229.756 240.323 229.756 239.263 229.752C237.565 229.746 235.868 229.737 234.17 229.726C234.103 226.113 234.103 226.113 234.706 224.909C235.009 224.904 235.313 224.899 235.625 224.893C241.172 224.78 246.598 224.538 252.035 223.37C252.438 223.283 252.841 223.197 253.256 223.108C261.254 221.263 269.286 217.616 274.169 210.766C274.768 209.779 275.347 208.781 275.921 207.78C276.275 207.78 276.628 207.78 276.992 207.78C277.069 207.36 277.146 206.941 277.226 206.509C277.527 205.104 277.527 205.104 278.062 204.033C278.416 204.033 278.769 204.033 279.133 204.033C279.232 203.106 279.232 203.106 279.334 202.16C279.497 200.637 279.795 199.306 280.216 197.823C280.911 195.103 280.896 192.442 280.873 189.648C280.877 189.15 280.881 188.653 280.885 188.14C280.871 183.062 279.785 178.451 278.297 173.623C277.581 171.282 276.879 168.98 276.457 166.564C276.103 166.564 275.75 166.564 275.386 166.564C273.417 162.38 273.417 162.38 273.78 160.141C274.583 158.903 274.583 158.903 275.386 158Z" fill="#007FFD"/>
<path d="M300.008 198.145C300.538 198.321 301.068 198.498 301.614 198.68C301.982 199.784 301.982 199.784 302.149 200.821C302.503 200.821 302.856 200.821 303.22 200.821C304.326 202.48 304.613 203.495 304.562 205.477C303.992 208.063 302.129 210.006 300.544 212.062C299.973 212.93 299.404 213.8 298.837 214.671C289.465 227.997 272.906 236.315 257.187 239.36C256.737 239.455 256.287 239.55 255.823 239.648C251.513 240.478 247.279 240.579 242.909 240.541C241.722 240.531 240.535 240.53 239.347 240.53C236.142 240.519 233.048 240.505 229.888 239.895C230.357 235.747 230.357 235.747 230.959 234.543C231.559 234.564 231.559 234.564 232.171 234.585C241.77 234.875 250.526 234.273 259.863 231.866C260.434 231.721 260.434 231.721 261.017 231.573C265.115 230.498 268.924 228.934 272.71 227.049C273.333 226.747 273.956 226.445 274.598 226.133C285.136 220.877 295.052 212.33 299.038 200.921C299.315 200.138 299.315 200.138 299.596 199.338C299.732 198.944 299.868 198.55 300.008 198.145Z" fill="#007FFD"/>
<path d="M225.639 261.174C227.355 261.32 228.738 261.852 230.335 262.47C231.41 262.881 232.49 263.266 233.578 263.641C242.51 266.776 250.543 272.212 256.116 280.042C256.116 280.395 256.116 280.749 256.116 281.113C256.469 281.113 256.823 281.113 257.187 281.113C258.032 282.211 258.818 283.313 259.595 284.458C262.172 288.162 264.945 291.61 267.892 295.03C268.234 295.432 268.577 295.834 268.929 296.249C271.899 299.703 275.078 302.844 278.526 305.819C279.809 306.928 281.077 308.053 282.344 309.181C282.753 309.544 283.161 309.908 283.582 310.283C283.88 310.548 284.178 310.814 284.485 311.088C282.586 312.354 281.394 312.471 279.133 312.693C278.488 312.795 277.844 312.896 277.18 313.001C274.971 312.984 273.973 312.152 272.377 310.676C271.506 309.788 270.647 308.887 269.799 307.976C269.349 307.509 268.899 307.041 268.436 306.56C265.403 303.379 262.518 300.14 259.863 296.635C259.452 296.114 259.041 295.592 258.617 295.055C256.337 292.153 254.163 289.197 252.064 286.162C249.565 282.551 247.129 279.205 243.805 276.295C243.506 276.008 243.207 275.721 242.9 275.425C240.448 273.151 237.718 271.809 234.705 270.407C233.943 270.008 233.943 270.008 233.164 269.6C231.407 268.76 229.681 268.183 227.814 267.631C227.197 267.446 226.58 267.262 225.945 267.072C225.479 266.936 225.014 266.8 224.535 266.66C224.431 265.869 224.332 265.077 224.234 264.285C224.178 263.844 224.122 263.403 224.065 262.949C224.043 262.584 224.022 262.219 224 261.843C224.535 261.308 224.535 261.308 225.639 261.174Z" fill="#007FFD"/>
<path d="M319.813 229.189C321.137 231.836 321.684 233.179 320.884 236.148C320.041 237.354 320.041 237.354 318.91 238.59C308.892 250.326 303.502 261.3 304.29 276.828C304.962 283.085 308.35 289.203 311.851 294.358C312.182 294.932 312.513 295.507 312.855 296.098C312.129 298.143 310.905 299.197 309.108 300.38C307.303 299.778 307.178 299.57 306.268 298.009C306.046 297.631 305.823 297.252 305.593 296.862C305.362 296.455 305.131 296.049 304.893 295.63C304.654 295.214 304.415 294.798 304.169 294.37C298.464 284.332 295.466 273.872 297.834 262.309C299.976 255.255 303.682 248.477 308.037 242.571C308.414 242.061 308.414 242.061 308.798 241.54C310.405 239.367 312.028 237.207 313.667 235.058C314.228 234.314 314.784 233.566 315.334 232.814C315.618 232.427 315.903 232.039 316.196 231.64C316.453 231.286 316.711 230.932 316.976 230.568C317.872 229.482 318.4 229.189 319.813 229.189Z" fill="#007FFD"/>
<path d="M322.49 239.361C324.095 239.897 324.095 239.897 324.731 240.766C325.34 242.547 325.324 243.905 325.166 245.785C324.447 247.06 323.778 248.092 322.891 249.23C321.046 251.742 319.457 254.169 318.208 257.025C317.929 257.649 317.651 258.273 317.365 258.915C316.341 261.684 316.338 264.371 316.368 267.296C316.371 267.84 316.374 268.384 316.377 268.944C316.485 274.128 317.493 278.334 319.981 282.919C321.044 285.204 321.114 286.218 320.349 288.606C318.977 290.178 318.977 290.178 317.672 291.282C314.52 287.794 313.205 283.928 311.784 279.506C311.573 278.945 311.573 278.945 311.357 278.371C310.278 275.431 309.922 272.862 309.978 269.738C309.983 269.296 309.988 268.854 309.993 268.399C310.125 263.009 311.159 258.245 313.775 253.5C314.517 252.157 314.517 252.157 315.159 250.46C316.156 248.091 317.599 246.069 319.077 243.978C319.346 243.591 319.616 243.204 319.893 242.805C321.849 240.002 321.849 240.002 322.49 239.361Z" fill="#007FFD"/>
<path d="M266.287 170.848C266.993 171.024 267.7 171.201 268.428 171.383C269.534 175.586 270.124 179.581 270.1 183.928C270.103 184.5 270.103 184.5 270.107 185.084C270.1 188.717 269.943 192.15 268.359 195.487C267.795 196.76 267.389 198.061 266.956 199.384C265.799 202.594 264.096 205.108 262.004 207.781C261.603 208.334 261.603 208.334 261.193 208.898C257.149 214.065 249.704 218.549 243.27 219.557C241.659 219.635 240.064 219.624 238.453 219.557C238.746 217.751 239.017 216.837 240.058 215.275C241.614 214.763 241.614 214.763 243.538 214.305C250.003 212.555 255.785 208.887 259.462 203.164C262.433 197.818 264.287 192.113 264.123 185.986C264.105 184.972 264.105 184.972 264.088 183.939C264.059 182.527 264.025 181.114 263.983 179.703C263.974 179.027 263.965 178.352 263.955 177.656C263.933 176.736 263.933 176.736 263.911 175.798C264.196 173.685 265.003 172.523 266.287 170.848Z" fill="#007FFD"/>
<path d="M226.676 273.617C236.801 277.018 245.568 287.193 252.369 295.028C252.676 295.374 252.983 295.721 253.3 296.078C254.756 297.725 256.186 299.391 257.605 301.071C260.719 304.748 263.867 308.29 267.357 311.621C265.132 312.557 263.144 311.71 260.967 311.019C260.402 310.858 260.402 310.858 259.826 310.693C257.24 309.888 255.786 308.889 253.975 306.804C253.552 306.355 253.129 305.905 252.693 305.443C250.568 303.118 248.488 300.789 246.548 298.306C241.631 292.076 235.929 285.606 229.286 281.178C227.609 279.938 227.108 279.38 226.676 277.364C226.635 276.116 226.627 274.865 226.676 273.617Z" fill="#007FFD"/>
<path d="M521.922 314.15L475.122 173C473.822 168.3 471.722 165.15 468.822 163.55C466.022 161.85 461.772 160.75 456.072 160.25V153.65H528.072V160.25C517.772 160.95 511.522 162.2 509.322 164C507.122 165.8 506.972 169.85 508.872 176.15L538.122 272.3H539.322L570.522 182.6C571.422 180.3 572.072 178.2 572.472 176.3C572.972 174.4 573.222 172.7 573.222 171.2C573.222 168.1 571.722 165.8 568.722 164.3C565.722 162.7 560.172 161.35 552.072 160.25V153.65H613.722V160.25C606.222 161.45 600.572 162.9 596.772 164.6C592.972 166.3 590.122 168.6 588.222 171.5C586.422 174.3 584.622 178.15 582.822 183.05L536.622 314.15H521.922ZM430.572 314.15L381.072 173C379.472 168.3 377.322 165.15 374.622 163.55C371.922 161.85 366.822 160.75 359.322 160.25V153.65H436.572V160.25C429.672 160.65 424.622 161.3 421.422 162.2C418.322 163 416.572 164.45 416.172 166.55C415.872 168.65 416.322 171.85 417.522 176.15L446.772 272.3H447.822L480.972 180.35L493.272 180.95L444.822 314.15H430.572ZM636.463 314.15C625.763 314.15 617.063 310.8 610.363 304.1C603.763 297.4 600.463 288.7 600.463 278C600.463 269.2 603.163 261.6 608.563 255.2C613.963 248.8 622.663 243.2 634.663 238.4C646.763 233.5 662.713 229.05 682.513 225.05V197C682.513 184.3 680.763 175.4 677.263 170.3C673.863 165.2 667.963 162.65 659.563 162.65C651.263 162.65 644.663 164.65 639.763 168.65C634.863 172.65 632.413 178.05 632.413 184.85C632.413 186.75 632.513 188.65 632.713 190.55C633.013 192.35 633.163 194.1 633.163 195.8C633.163 200.9 631.613 205.1 628.513 208.4C625.513 211.7 621.663 213.35 616.963 213.35C612.663 213.35 609.163 211.95 606.463 209.15C603.863 206.35 602.563 202.7 602.563 198.2C602.563 191.7 605.363 185.05 610.963 178.25C616.663 171.35 624.163 165.45 633.463 160.55C645.863 153.95 659.313 150.65 673.813 150.65C682.513 150.65 689.863 152 695.863 154.7C701.963 157.4 706.363 161.25 709.063 166.25C710.663 169.65 711.713 173.95 712.213 179.15C712.813 184.35 713.113 193.05 713.113 205.25V272.3C713.113 282 713.863 288.6 715.363 292.1C716.963 295.6 719.913 297.35 724.213 297.35C729.113 297.35 733.863 294.55 738.463 288.95L743.863 294.05C738.963 301.15 733.963 306.3 728.863 309.5C723.863 312.6 718.013 314.15 711.313 314.15C703.213 314.15 696.913 311.95 692.413 307.55C687.913 303.15 684.913 296.45 683.413 287.45H682.513C676.813 295.65 669.913 302.15 661.813 306.95C653.713 311.75 645.263 314.15 636.463 314.15ZM651.463 295.1C657.663 295.1 663.463 293.5 668.863 290.3C674.263 287 678.813 282.45 682.513 276.65V234.35C669.113 236.95 658.563 239.8 650.863 242.9C643.263 246 637.863 249.8 634.663 254.3C631.563 258.7 630.013 264.25 630.013 270.95C630.013 278.65 631.813 284.6 635.413 288.8C639.113 293 644.463 295.1 651.463 295.1ZM792.116 314.15C781.016 314.15 772.566 311 766.766 304.7C760.966 298.4 758.066 289.35 758.066 277.55V164.75H738.566L737.666 159.35L782.666 114.65L788.516 115.25V153.65H831.416L828.866 164.75H788.516V274.55C788.516 290.95 794.416 299.15 806.216 299.15C810.216 299.15 814.166 298.1 818.066 296C822.066 293.9 825.466 291 828.266 287.3L833.516 291.95C828.916 298.75 822.916 304.15 815.516 308.15C808.216 312.15 800.416 314.15 792.116 314.15ZM906.871 314.15C892.371 314.15 879.621 310.85 868.621 304.25C857.721 297.55 849.221 288.25 843.121 276.35C837.121 264.35 834.121 250.5 834.121 234.8C834.121 218.1 837.471 203.45 844.171 190.85C850.971 178.25 860.421 168.4 872.521 161.3C884.721 154.2 898.821 150.65 914.821 150.65C934.621 150.65 949.771 156.4 960.271 167.9C970.871 179.4 976.371 196.25 976.771 218.45L974.671 220.25H858.421V211.55L942.421 208.55C943.121 205.95 943.471 202 943.471 196.7C943.471 172.7 932.921 160.7 911.821 160.7C897.321 160.7 886.121 166.4 878.221 177.8C870.421 189.1 866.521 205.15 866.521 225.95C866.521 269.45 883.421 291.2 917.221 291.2C939.221 291.2 956.071 283.2 967.771 267.2L973.321 270.65C968.121 284.45 959.671 295.15 947.971 302.75C936.371 310.35 922.671 314.15 906.871 314.15ZM982.792 311V304.4L1005.29 299.75V177.5L983.392 169.25V164.9L1031.39 150.5H1034.69V182.9L1035.89 184.4V299.75L1066.79 304.4V311H982.792ZM1033.64 196.7L1033.04 184.4C1040.44 173.5 1047.79 165.1 1055.09 159.2C1062.49 153.3 1069.39 150.35 1075.79 150.35C1081.29 150.35 1085.94 152.25 1089.74 156.05C1093.54 159.75 1095.44 164.25 1095.44 169.55C1095.44 174.45 1093.79 178.6 1090.49 182C1087.19 185.3 1083.09 186.95 1078.19 186.95C1073.19 186.95 1069.29 185.1 1066.49 181.4C1064.49 179.1 1062.79 177.55 1061.39 176.75C1059.99 175.85 1058.39 175.4 1056.59 175.4C1053.69 175.4 1050.04 177.35 1045.64 181.25C1041.34 185.05 1037.34 190.2 1033.64 196.7ZM1117.9 314.15C1111.6 314.15 1106.5 312.1 1102.6 308C1098.8 303.8 1096.9 298.8 1096.9 293C1096.9 286.8 1098.8 281.7 1102.6 277.7C1106.5 273.6 1111.55 271.55 1117.75 271.55C1124.35 271.55 1129.6 273.6 1133.5 277.7C1137.5 281.7 1139.5 286.8 1139.5 293C1139.5 298.8 1137.5 303.8 1133.5 308C1129.6 312.1 1124.4 314.15 1117.9 314.15Z" fill="#007FFD"/>
</svg>
